<svg alt="Propage" class="propage" id="b0f2b90c-610c-4349-b565-cd0e039de174" data-name="Layer 1" xmlns="http://www.w3.org/2000/svg" viewBox="0 0 203.78 74.77"><title>propage</title>
    <path d="M98.17,8a14.6,14.6,0,0,0-7.84,2.29V8.88H82.75v38.5h8.79V35.78a14.52,14.52,0,0,0,6.63,1.6A14.67,14.67,0,0,0,98.17,8m0,21.32A6.64,6.64,0,0,1,91.54,23v-.57a6.64,6.64,0,1,1,6.63,6.94"></path>
    <path d="M15.41,8a14.57,14.57,0,0,0-7.83,2.29V8.88H0v38.5H8.79V35.78a14.48,14.48,0,0,0,6.62,1.6A14.67,14.67,0,1,0,15.41,8m0,21.32A6.64,6.64,0,0,1,8.79,23v-.57a6.64,6.64,0,1,1,6.62,6.94"></path>
    <path d="M51.07,22.7A14.67,14.67,0,1,0,65.74,8,14.69,14.69,0,0,0,51.07,22.7m8,0a6.65,6.65,0,1,1,6.65,6.66,6.66,6.66,0,0,1-6.65-6.66"></path>
    <path d="M48.26,8a14.57,14.57,0,0,0-7.83,2.29V8.88H32.85V36.46h8.79v-14a6.65,6.65,0,0,1,6.62-6.37,6.52,6.52,0,0,1,2.26.42V8.23A15.31,15.31,0,0,0,48.26,8"></path>
    <path d="M199.61,12.07a13.76,13.76,0,0,0-10.05-4,14.3,14.3,0,0,0-10.39,4.12,14,14,0,0,0-4.23,10.49,14,14,0,0,0,4.23,10.52,14.28,14.28,0,0,0,10.33,4.09,15.73,15.73,0,0,0,8.38-2.17,13.13,13.13,0,0,0,5.3-6.45h-9.06a6.59,6.59,0,0,1-4.62,1.59,5.5,5.5,0,0,1-3.79-1.43,7.1,7.1,0,0,1-2.14-3.9h20.21V22.67a14.57,14.57,0,0,0-4.17-10.6m-15.88,7.47A5.82,5.82,0,0,1,186,16.35a6.18,6.18,0,0,1,3.58-1.15A5.69,5.69,0,0,1,193,16.3a5.8,5.8,0,0,1,2.08,3.24Z"></path>
    <path d="M137.6,10.92c-2.22-1.91-5.21-2.86-9-2.86a14.1,14.1,0,0,0-8.26,2.28,10.24,10.24,0,0,0-4.2,6.4h8.74a3.78,3.78,0,0,1,3.56-1.87,3.74,3.74,0,0,1,4,4v.32l-6.76.55q-11.37.82-11.37,9.07a7.77,7.77,0,0,0,2.72,6.15,10.49,10.49,0,0,0,7.12,2.36,11.9,11.9,0,0,0,9.17-3.68V37h7.58V19q0-5.22-3.32-8.07m-5.14,14.66a4.7,4.7,0,0,1-1.59,3.68,5.76,5.76,0,0,1-4,1.43,4.16,4.16,0,0,1-2.48-.68,2.29,2.29,0,0,1-.93-2q0-2.64,3.68-3l5.33-.6v1.15Z"></path>
    <path d="M166.28,5.93A5.94,5.94,0,1,0,172.21,0a5.94,5.94,0,0,0-5.93,5.93m3.27,0a2.67,2.67,0,1,1,2.66,2.66,2.67,2.67,0,0,1-2.66-2.66"></path>
    <path d="M143.26,22.7A14.67,14.67,0,1,0,157.93,8,14.69,14.69,0,0,0,143.26,22.7m8,0a6.65,6.65,0,1,1,6.65,6.66,6.66,6.66,0,0,1-6.65-6.66"></path>
    <path d="M161.07,39A17.89,17.89,0,1,0,179,56.89,17.91,17.91,0,0,0,161.07,39M171,56.89A9.88,9.88,0,1,1,161.07,47,9.89,9.89,0,0,1,171,56.89"></path>
</svg>